<svg width="20" height="20" viewBox="0 0 20 20" fill="none" xmlns="http://www.w3.org/2000/svg">
<path fill-rule="evenodd" clip-rule="evenodd" d="M3.125 14.375C3.125 14.0298 3.40482 13.75 3.75 13.75H16.25C16.5952 13.75 16.875 14.0298 16.875 14.375C16.875 14.7202 16.5952 15 16.25 15H3.75C3.40482 15 3.125 14.7202 3.125 14.375Z" fill="white"/>
<path fill-rule="evenodd" clip-rule="evenodd" d="M3.125 9.375C3.125 9.02982 3.40482 8.75 3.75 8.75H16.25C16.5952 8.75 16.875 9.02982 16.875 9.375C16.875 9.72018 16.5952 10 16.25 10H3.75C3.40482 10 3.125 9.72018 3.125 9.375Z" fill="white"/>
<path fill-rule="evenodd" clip-rule="evenodd" d="M3.125 4.375C3.125 4.02982 3.40482 3.75 3.75 3.75H16.25C16.5952 3.75 16.875 4.02982 16.875 4.375C16.875 4.72018 16.5952 5 16.25 5H3.75C3.40482 5 3.125 4.72018 3.125 4.375Z" fill="white"/>
</svg>
