<svg width="20" height="20" viewBox="0 0 20 20" fill="none" xmlns="http://www.w3.org/2000/svg">
<path d="M17.5751 4.64095C17.7244 3.30256 17.4588 2.35121 16.6976 1.4832C15.7855 0.444633 14.1393 0 12.0329 0H5.91754C5.48725 0 5.1202 0.312938 5.0537 0.738664L2.50651 16.8843C2.45631 17.2038 2.70275 17.4919 3.02482 17.4919H6.47031L6.21812 19.0929C6.14357 19.5691 6.51094 20 6.99328 20H10.1755C10.7109 20 11.1658 19.6123 11.2527 19.0857L11.2842 18.9233L11.8835 15.1197L11.9213 14.9152L11.9227 14.9067C11.9564 14.6924 12.1405 14.5353 12.3569 14.5353H12.8328C14.4147 14.5353 15.8635 14.2147 17.0144 13.3964C17.4875 13.0599 17.9038 12.6441 18.2556 12.1418C18.8106 11.3688 19.2154 10.4192 19.3548 9.39764C19.6581 7.84053 19.5181 6.45311 18.6419 5.45459C18.3794 5.15661 18.0586 4.91337 17.6924 4.71767L17.5751 4.64095ZM8.17873 11.0257C8.29923 10.9631 8.43588 10.928 8.58013 10.928H10.3743C13.8981 10.928 16.6572 9.497 17.4637 5.35709L17.4674 5.33811C17.7384 5.49287 17.967 5.67478 18.1522 5.88504C18.8355 6.66375 19.001 7.80376 18.7149 9.27302C18.3749 11.0188 17.6326 12.1568 16.6366 12.865C15.6336 13.5781 14.3341 13.8834 12.8328 13.8834H12.3569C11.8212 13.8834 11.3649 14.2716 11.2794 14.8008L11.2415 15.0056L10.6419 18.8105L10.6107 18.9719L10.6098 18.9772C10.5757 19.191 10.3918 19.348 10.1755 19.348H6.99328C6.91236 19.348 6.84946 19.2756 6.86223 19.1937L7.12208 17.5441L7.12231 17.5427L8.17873 11.0257Z" fill="black"/>
</svg>
