<svg width="20" height="20" viewBox="0 0 20 20" fill="none" xmlns="http://www.w3.org/2000/svg">
<path d="M10.0639 2.49841C10.0711 2.49843 10.0787 2.49845 10.0869 2.49847L10.1754 2.49874C11.2027 2.50252 16.4091 2.54025 17.8128 2.91764C18.6733 3.14845 19.351 3.82864 19.581 4.69206C19.7076 5.16643 19.7958 5.79693 19.8573 6.44537L19.8693 6.57526C19.8789 6.68363 19.8879 6.79224 19.8962 6.90045L19.9058 7.03008C19.9879 8.17271 19.9975 9.24197 19.9986 9.47591L19.9988 9.50747C19.9988 9.51005 19.9988 9.51428 19.9988 9.51428V9.53199C19.9988 9.53199 19.9988 9.53622 19.9988 9.5388L19.9986 9.57036C19.9975 9.81314 19.9872 10.9555 19.8962 12.1459L19.8859 12.2759L19.875 12.406C19.8131 13.1218 19.7202 13.8325 19.581 14.3542C19.351 15.2176 18.6733 15.898 17.8128 16.1286C16.3623 16.5187 10.8514 16.5461 10.0869 16.548L10.0281 16.5481C10.0233 16.5481 10.019 16.5481 10.0154 16.5481L9.99134 16.5481C9.99134 16.5481 9.98582 16.5481 9.98217 16.5481L9.91058 16.548C9.52427 16.547 7.92571 16.5395 6.25162 16.4821L6.03758 16.4744C6.00187 16.4731 5.96615 16.4718 5.93042 16.4704L5.71614 16.462L5.50235 16.4529C4.11547 16.392 2.79315 16.2922 2.18486 16.1286C1.32434 15.898 0.646714 15.2176 0.416724 14.3542C0.277391 13.8325 0.184503 13.1218 0.122577 12.406L0.111655 12.2759L0.101396 12.1459C0.0136292 10.9988 0.000888894 9.89628 -0.000960504 9.60037L-0.0011815 9.55802C-0.00119701 9.5542 -0.00120993 9.55069 -0.0012207 9.54748V9.49878C-0.00120993 9.49558 -0.00119701 9.49207 -0.0011815 9.48825L-0.000960504 9.4459C0.000714423 9.17791 0.0113223 8.24837 0.0785055 7.22327L0.0872015 7.09467C0.0887011 7.07317 0.0902261 7.05164 0.0917769 7.03008L0.101396 6.90045C0.109676 6.79224 0.118623 6.68363 0.128292 6.57526L0.140245 6.44537C0.201775 5.79693 0.290058 5.16643 0.416724 4.69206C0.646714 3.82864 1.32434 3.14845 2.18486 2.91764C2.79315 2.75411 4.11547 2.65435 5.50235 2.5935L5.71614 2.58444L5.93042 2.57598C5.96615 2.57461 6.00187 2.57328 6.03758 2.57196L6.25162 2.56435C7.81885 2.51055 9.31989 2.50059 9.82208 2.49874L9.91058 2.49847C9.9188 2.49845 9.92647 2.49843 9.93358 2.49841H10.0639ZM7.99882 6.51241V12.5339L13.1947 9.5233L7.99882 6.51241Z" fill="black"/>
</svg>
